  0
SECTION
  2
HEADER
  9
$ACADVER
  1
AC1015
  9
$ACADMAINTVER
 70
     6
  9
$DWGCODEPAGE
  3
ANSI_1252
  9
$INSBASE
 10
0.0
 20
0.0
 30
0.0
  9
$EXTMIN
 10
-76.5
 20
-42.0
 30
0.0
  9
$EXTMAX
 10
76.5
 20
36.0
 30
0.0
  9
$LIMMIN
 10
0.0
 20
0.0
  9
$LIMMAX
 10
420.0
 20
297.0
  9
$ORTHOMODE
 70
     0
  9
$REGENMODE
 70
     1
  9
$FILLMODE
 70
     1
  9
$QTEXTMODE
 70
     0
  9
$MIRRTEXT
 70
     1
  9
$LTSCALE
 40
1.0
  9
$ATTMODE
 70
     1
  9
$TEXTSIZE
 40
3.5
  9
$TRACEWID
 40
1.0
  9
$TEXTSTYLE
  7
Standard
  9
$CLAYER
  8
0
  9
$CELTYPE
  6
ByLayer
  9
$CECOLOR
 62
   256
  9
$CELTSCALE
 40
1.0
  9
$DISPSILH
 70
     0
  9
$DIMSCALE
 40
1.0
  9
$DIMASZ
 40
3.302
  9
$DIMEXO
 40
1.0
  9
$DIMDLI
 40
3.75
  9
$DIMRND
 40
0.0
  9
$DIMDLE
 40
0.0
  9
$DIMEXE
 40
1.0
  9
$DIMTP
 40
0.0
  9
$DIMTM
 40
0.0
  9
$DIMTXT
 40
3.5
  9
$DIMCEN
 40
2.5
  9
$DIMTSZ
 40
0.0
  9
$DIMTOL
 70
     0
  9
$DIMLIM
 70
     0
  9
$DIMTIH
 70
     1
  9
$DIMTOH
 70
     1
  9
$DIMSE1
 70
     0
  9
$DIMSE2
 70
     0
  9
$DIMTAD
 70
     1
  9
$DIMZIN
 70
     0
  9
$DIMBLK
  1

  9
$DIMASO
 70
     1
  9
$DIMSHO
 70
     1
  9
$DIMPOST
  1

  9
$DIMAPOST
  1

  9
$DIMALT
 70
     0
  9
$DIMALTD
 70
     3
  9
$DIMALTF
 40
0.0393700787
  9
$DIMLFAC
 40
1.0
  9
$DIMTOFL
 70
     1
  9
$DIMTVP
 40
0.0
  9
$DIMTIX
 70
     0
  9
$DIMSOXD
 70
     0
  9
$DIMSAH
 70
     0
  9
$DIMBLK1
  1

  9
$DIMBLK2
  1

  9
$DIMSTYLE
  2
ISO-25
  9
$DIMCLRD
 70
     0
  9
$DIMCLRE
 70
     0
  9
$DIMCLRT
 70
     0
  9
$DIMTFAC
 40
1.0
  9
$DIMGAP
 40
1.524
  9
$DIMJUST
 70
     0
  9
$DIMSD1
 70
     0
  9
$DIMSD2
 70
     0
  9
$DIMTOLJ
 70
     0
  9
$DIMTZIN
 70
     0
  9
$DIMALTZ
 70
     0
  9
$DIMALTTZ
 70
     0
  9
$DIMUPT
 70
     0
  9
$DIMDEC
 70
     2
  9
$DIMTDEC
 70
     2
  9
$DIMALTU
 70
     2
  9
$DIMALTTD
 70
     3
  9
$DIMTXSTY
  7
Standard
  9
$DIMAUNIT
 70
     0
  9
$DIMADEC
 70
     2
  9
$DIMALTRND
 40
0.0
  9
$DIMAZIN
 70
     0
  9
$DIMDSEP
 70
    44
  9
$DIMATFIT
 70
     3
  9
$DIMFRAC
 70
     0
  9
$DIMLDRBLK
  1

  9
$DIMLUNIT
 70
     2
  9
$DIMLWD
 70
    -2
  9
$DIMLWE
 70
    -2
  9
$DIMTMOVE
 70
     0
  9
$LUNITS
 70
     2
  9
$LUPREC
 70
     2
  9
$SKETCHINC
 40
1.0
  9
$FILLETRAD
 40
10.0
  9
$AUNITS
 70
     0
  9
$AUPREC
 70
     2
  9
$MENU
  1
.
  9
$ELEVATION
 40
0.0
  9
$PELEVATION
 40
0.0
  9
$THICKNESS
 40
0.0
  9
$LIMCHECK
 70
     0
  9
$CHAMFERA
 40
0.0
  9
$CHAMFERB
 40
0.0
  9
$CHAMFERC
 40
0.0
  9
$CHAMFERD
 40
0.0
  9
$SKPOLY
 70
     0
  9
$TDCREATE
 40
2458182.721419444
  9
$TDUCREATE
 40
2458182.596419444
  9
$TDUPDATE
 40
2458182.721446586
  9
$TDUUPDATE
 40
2458182.596446586
  9
$TDINDWG
 40
0.0000000116
  9
$TDUSRTIMER
 40
0.0000000116
  9
$USRTIMER
 70
     1
  9
$ANGBASE
 50
0.0
  9
$ANGDIR
 70
     0
  9
$PDMODE
 70
     0
  9
$PDSIZE
 40
-1.0
  9
$PLINEWID
 40
0.0
  9
$SPLFRAME
 70
     0
  9
$SPLINETYPE
 70
     6
  9
$SPLINESEGS
 70
     8
  9
$HANDSEED
  5
D0
  9
$SURFTAB1
 70
     6
  9
$SURFTAB2
 70
     6
  9
$SURFTYPE
 70
     6
  9
$SURFU
 70
     6
  9
$SURFV
 70
     6
  9
$UCSBASE
  2

  9
$UCSNAME
  2

  9
$UCSORG
 10
0.0
 20
0.0
 30
0.0
  9
$UCSXDIR
 10
1.0
 20
0.0
 30
0.0
  9
$UCSYDIR
 10
0.0
 20
1.0
 30
0.0
  9
$UCSORTHOREF
  2

  9
$UCSORTHOVIEW
 70
     0
  9
$UCSORGTOP
 10
0.0
 20
0.0
 30
0.0
  9
$UCSORGBOTTOM
 10
0.0
 20
0.0
 30
0.0
  9
$UCSORGLEFT
 10
0.0
 20
0.0
 30
0.0
  9
$UCSORGRIGHT
 10
0.0
 20
0.0
 30
0.0
  9
$UCSORGFRONT
 10
0.0
 20
0.0
 30
0.0
  9
$UCSORGBACK
 10
0.0
 20
0.0
 30
0.0
  9
$PUCSBASE
  2

  9
$PUCSNAME
  2

  9
$PUCSORG
 10
0.0
 20
0.0
 30
0.0
  9
$PUCSXDIR
 10
1.0
 20
0.0
 30
0.0
  9
$PUCSYDIR
 10
0.0
 20
1.0
 30
0.0
  9
$PUCSORTHOREF
  2

  9
$PUCSORTHOVIEW
 70
     0
  9
$PUCSORGTOP
 10
0.0
 20
0.0
 30
0.0
  9
$PUCSORGBOTTOM
 10
0.0
 20
0.0
 30
0.0
  9
$PUCSORGLEFT
 10
0.0
 20
0.0
 30
0.0
  9
$PUCSORGRIGHT
 10
0.0
 20
0.0
 30
0.0
  9
$PUCSORGFRONT
 10
0.0
 20
0.0
 30
0.0
  9
$PUCSORGBACK
 10
0.0
 20
0.0
 30
0.0
  9
$USERI1
 70
     0
  9
$USERI2
 70
     0
  9
$USERI3
 70
     0
  9
$USERI4
 70
     0
  9
$USERI5
 70
     0
  9
$USERR1
 40
0.0
  9
$USERR2
 40
0.0
  9
$USERR3
 40
0.0
  9
$USERR4
 40
0.0
  9
$USERR5
 40
0.0
  9
$WORLDVIEW
 70
     1
  9
$SHADEDGE
 70
     3
  9
$SHADEDIF
 70
    70
  9
$TILEMODE
 70
     1
  9
$MAXACTVP
 70
    64
  9
$PINSBASE
 10
0.0
 20
0.0
 30
0.0
  9
$PLIMCHECK
 70
     0
  9
$PEXTMIN
 10
1.0000000000E+20
 20
1.0000000000E+20
 30
1.0000000000E+20
  9
$PEXTMAX
 10
-1.0000000000E+20
 20
-1.0000000000E+20
 30
-1.0000000000E+20
  9
$PLIMMIN
 10
0.0
 20
0.0
  9
$PLIMMAX
 10
420.0
 20
297.0
  9
$UNITMODE
 70
     0
  9
$VISRETAIN
 70
     1
  9
$PLINEGEN
 70
     0
  9
$PSLTSCALE
 70
     1
  9
$TREEDEPTH
 70
  3020
  9
$CMLSTYLE
  2
Standard
  9
$CMLJUST
 70
     0
  9
$CMLSCALE
 40
20.0
  9
$PROXYGRAPHICS
 70
     1
  9
$MEASUREMENT
 70
     1
  9
$CELWEIGHT
370
    -1
  9
$ENDCAPS
280
     0
  9
$JOINSTYLE
280
     0
  9
$LWDISPLAY
290
     1
  9
$INSUNITS
 70
     4
  9
$HYPERLINKBASE
  1

  9
$STYLESHEET
  1

  9
$XEDIT
290
     1
  9
$CEPSNTYPE
380
     0
  9
$PSTYLEMODE
290
     1
  9
$FINGERPRINTGUID
  2
{7804EF52-4C14-4615-86A7-72D4DFAB7E59}
  9
$VERSIONGUID
  2
{FAEB1C32-E019-11D5-929B-00C0DF256EC4}
  9
$EXTNAMES
290
     1
  9
$PSVPSCALE
 40
0.0
  9
$OLESTARTUP
290
     0
  0
ENDSEC
  0
SECTION
  2
CLASSES
  0
CLASS
  1
ACDBDICTIONARYWDFLT
  2
AcDbDictionaryWithDefault
  3
ObjectDBX Classes
 90
        0
280
     0
281
     0
  0
CLASS
  1
VISUALSTYLE
  2
AcDbVisualStyle
  3
ObjectDBX Classes
 90
     4095
280
     0
281
     0
  0
CLASS
  1
MATERIAL
  2
AcDbMaterial
  3
ObjectDBX Classes
 90
     1153
280
     0
281
     0
  0
CLASS
  1
SCALE
  2
AcDbScale
  3
ObjectDBX Classes
 90
     1153
280
     0
281
     0
  0
CLASS
  1
TABLESTYLE
  2
AcDbTableStyle
  3
ObjectDBX Classes
 90
     4095
280
     0
281
     0
  0
CLASS
  1
MLEADERSTYLE
  2
AcDbMLeaderStyle
  3
ACDB_MLEADERSTYLE_CLASS
 90
     4095
280
     0
281
     0
  0
CLASS
  1
SUN
  2
AcDbSun
  3
SCENEOE
 90
     1153
280
     0
281
     0
  0
CLASS
  1
ACDBPLACEHOLDER
  2
AcDbPlaceHolder
  3
ObjectDBX Classes
 90
        0
280
     0
281
     0
  0
CLASS
  1
LAYOUT
  2
AcDbLayout
  3
ObjectDBX Classes
 90
        0
280
     0
281
     0
  0
ENDSEC
  0
SECTION
  2
TABLES
  0
TABLE
  2
VPORT
  5
8
330
0
100
AcDbSymbolTable
 70
     1
  0
VPORT
  5
29
330
8
100
AcDbSymbolTableRecord
100
AcDbViewportTableRecord
  2
*Active
 70
     0
 10
0.0
 20
0.0
 11
1.0
 21
1.0
 12
0.0
 22
-3.0
 13
0.0
 23
0.0
 14
10.0
 24
10.0
 15
10.0
 25
10.0
 16
0.0
 26
0.0
 36
1.0
 17
0.0
 27
0.0
 37
0.0
 40
79.56
 41
1.9615384615
 42
50.0
 43
0.0
 44
0.0
 50
0.0
 51
0.0
 71
     0
 72
   100
 73
     1
 74
     3
 75
     0
 76
     0
 77
     0
 78
     0
281
     0
 65
     1
110
0.0
120
0.0
130
0.0
111
1.0
121
0.0
131
0.0
112
0.0
122
1.0
132
0.0
 79
     0
146
0.0
  0
ENDTAB
  0
TABLE
  2
LTYPE
  5
5
330
0
100
AcDbSymbolTable
 70
     6
  0
LTYPE
  5
14
330
5
100
AcDbSymbolTableRecord
100
AcDbLinetypeTableRecord
  2
ByBlock
 70
     0
  3

 72
    65
 73
     0
 40
0.0
  0
LTYPE
  5
15
330
5
100
AcDbSymbolTableRecord
100
AcDbLinetypeTableRecord
  2
ByLayer
 70
     0
  3

 72
    65
 73
     0
 40
0.0
  0
LTYPE
  5
16
330
5
100
AcDbSymbolTableRecord
100
AcDbLinetypeTableRecord
  2
Continuous
 70
     0
  3
Solid line
 72
    65
 73
     0
 40
0.0
  0
LTYPE
  5
6E
330
5
100
AcDbSymbolTableRecord
100
AcDbLinetypeTableRecord
  2
HIDDEN
 70
     0
  3
Hidden __ __ __ __ __ __ __ __ __ __ __ __ __ __
 72
    65
 73
     2
 40
1.905
 49
1.27
 74
     0
 49
-0.635
 74
     0
  0
LTYPE
  5
6F
330
5
100
AcDbSymbolTableRecord
100
AcDbLinetypeTableRecord
  2
PHANTOM
 70
     0
  3
Phantom ______  __  __  ______  __  __  ______
 72
    65
 73
     6
 40
12.7
 49
6.35
 74
     0
 49
-1.27
 74
     0
 49
1.27
 74
     0
 49
-1.27
 74
     0
 49
1.27
 74
     0
 49
-1.27
 74
     0
  0
LTYPE
  5
70
330
5
100
AcDbSymbolTableRecord
100
AcDbLinetypeTableRecord
  2
CENTER
 70
     0
  3
Center ____ _ ____ _ ____ _ ____ _ ____ _ ____
 72
    65
 73
     4
 40
10.16
 49
6.35
 74
     0
 49
-1.27
 74
     0
 49
1.27
 74
     0
 49
-1.27
 74
     0
  0
LTYPE
  5
71
330
5
100
AcDbSymbolTableRecord
100
AcDbLinetypeTableRecord
  2
CENTERX2
 70
     0
  3
Center (2x) ________  __  ________  __  _____
 72
    65
 73
     4
 40
20.32
 49
12.7
 74
     0
 49
-2.54
 74
     0
 49
2.54
 74
     0
 49
-2.54
 74
     0
  0
LTYPE
  5
72
330
5
100
AcDbSymbolTableRecord
100
AcDbLinetypeTableRecord
  2
DOT2
 70
     0
  3
Dot (.5x) ........................................
 72
    65
 73
     2
 40
0.635
 49
0.0
 74
     0
 49
-0.635
 74
     0
  0
ENDTAB
  0
TABLE
  2
LAYER
  5
2
330
0
100
AcDbSymbolTable
 70
     1
  0
LAYER
  5
10
330
2
100
AcDbSymbolTableRecord
100
AcDbLayerTableRecord
  2
0
 70
     0
 62
     7
  6
Continuous
370
    -3
390
F
  0
ENDTAB
  0
TABLE
  2
STYLE
  5
3
330
0
100
AcDbSymbolTable
 70
     1
  0
STYLE
  5
11
330
3
100
AcDbSymbolTableRecord
100
AcDbTextStyleTableRecord
  2
Standard
 70
     0
 40
0.0
 41
1.0
 50
0.0
 71
     0
 42
3.5
  3
txt
  4

  0
ENDTAB
  0
TABLE
  2
VIEW
  5
6
330
0
100
AcDbSymbolTable
 70
     0
  0
ENDTAB
  0
TABLE
  2
UCS
  5
7
330
0
100
AcDbSymbolTable
 70
     0
  0
ENDTAB
  0
TABLE
  2
APPID
  5
9
330
0
100
AcDbSymbolTable
 70
     1
  0
APPID
  5
12
330
9
100
AcDbSymbolTableRecord
100
AcDbRegAppTableRecord
  2
ACAD
 70
     0
  0
ENDTAB
  0
TABLE
  2
DIMSTYLE
  5
A
330
0
100
AcDbSymbolTable
 70
     1
100
AcDbDimStyleTable
  0
DIMSTYLE
105
27
330
A
100
AcDbSymbolTableRecord
100
AcDbDimStyleTableRecord
  2
ISO-25
 70
     0
 41
2.5
 42
0.625
 43
3.75
 44
1.25
 73
     0
 74
     0
 77
     1
 78
     8
140
2.5
141
2.5
143
0.0393700787
147
0.625
171
     3
172
     1
178
     0
271
     2
272
     2
274
     3
278
    44
283
     0
284
     8
340
11
  0
ENDTAB
  0
TABLE
  2
BLOCK_RECORD
  5
1
330
0
100
AcDbSymbolTable
 70
     1
  0
BLOCK_RECORD
  5
1F
330
1
100
AcDbSymbolTableRecord
100
AcDbBlockTableRecord
  2
*Model_Space
340
22
  0
BLOCK_RECORD
  5
1B
330
1
100
AcDbSymbolTableRecord
100
AcDbBlockTableRecord
  2
*Paper_Space
340
1E
  0
BLOCK_RECORD
  5
23
330
1
100
AcDbSymbolTableRecord
100
AcDbBlockTableRecord
  2
*Paper_Space0
340
26
  0
ENDTAB
  0
ENDSEC
  0
SECTION
  2
BLOCKS
  0
BLOCK
  5
20
330
1F
100
AcDbEntity
  8
0
100
AcDbBlockBegin
  2
*Model_Space
 70
     0
 10
0.0
 20
0.0
 30
0.0
  3
*Model_Space
  1

  0
ENDBLK
  5
21
330
1F
100
AcDbEntity
  8
0
100
AcDbBlockEnd
  0
BLOCK
  5
1C
330
1B
100
AcDbEntity
 67
     1
  8
0
100
AcDbBlockBegin
  2
*Paper_Space
 70
     0
 10
0.0
 20
0.0
 30
0.0
  3
*Paper_Space
  1

  0
ENDBLK
  5
1D
330
1B
100
AcDbEntity
 67
     1
  8
0
100
AcDbBlockEnd
  0
BLOCK
  5
24
330
23
100
AcDbEntity
  8
0
100
AcDbBlockBegin
  2
*Paper_Space0
 70
     0
 10
0.0
 20
0.0
 30
0.0
  3
*Paper_Space0
  1

  0
ENDBLK
  5
25
330
23
100
AcDbEntity
  8
0
100
AcDbBlockEnd
  0
ENDSEC
  0
SECTION
  2
ENTITIES
  0
SPLINE
  5
73
330
1F
100
AcDbEntity
  8
0
  6
Continuous
 62
     7
370
    25
100
AcDbSpline
210
0.0
220
0.0
230
1.0
 70
     8
 71
     3
 72
    31
 73
    27
 74
     0
 42
0.000000001
 43
0.00000001
 40
0.0
 40
0.0
 40
0.0
 40
0.0
 40
0.0420233285259237
 40
0.0836449111687119
 40
0.1249837954173945
 40
0.1662474611728953
 40
0.2077015560969882
 40
0.2496310707996495
 40
0.2917417703321309
 40
0.3347428753531985
 40
0.3774601685508655
 40
0.4195563188419398
 40
0.4610441763330338
 40
0.502096283944397
 40
0.5428907140755999
 40
0.5838008186265052
 40
0.6248635833101933
 40
0.6662246890691705
 40
0.7073991864779365
 40
0.7485566775366933
 40
0.7896545909521803
 40
0.8307397264898324
 40
0.8720701422586047
 40
0.9139933952421327
 40
0.9564981300675883
 40
1.0
 40
1.0
 40
1.0
 40
1.0
 10
-7.148386960701087
 20
3.141973357918531
 30
0.0
 10
-7.208059311131217
 20
3.141245945013508
 30
0.0
 10
-7.326833540256771
 20
3.13979807332038
 30
0.0
 10
-7.503408400870378
 20
3.120726217573314
 30
0.0
 10
-7.677661013242923
 20
3.093544341988018
 30
0.0
 10
-7.849627363992603
 20
3.054771670656891
 30
0.0
 10
-8.0185879255648
 20
3.001945288010661
 30
0.0
 10
-8.186117613714751
 20
2.941147792547281
 30
0.0
 10
-8.350688736358574
 20
2.86709129694604
 30
0.0
 10
-8.511757995664182
 20
2.783420262859613
 30
0.0
 10
-8.667906845373313
 20
2.690809117166746
 30
0.0
 10
-8.815248246990796
 20
2.588455459029924
 30
0.0
 10
-8.95416364102489
 20
2.478759609436483
 30
0.0
 10
-9.08431290152996
 20
2.361465564768841
 30
0.0
 10
-9.20531386763331
 20
2.235975999765177
 30
0.0
 10
-9.31954811266238
 20
2.104193354419622
 30
0.0
 10
-9.42243681502313
 20
1.962350907086767
 30
0.0
 10
-9.516730727029477
 20
1.814295000620474
 30
0.0
 10
-9.601111649675095
 20
1.660218481305195
 30
0.0
 10
-9.676145952834327
 20
1.50174345838195
 30
0.0
 10
-9.737523920551336
 20
1.33757722305904
 30
0.0
 10
-9.787580576426375
 20
1.169500809772849
 30
0.0
 10
-9.829080959255942
 20
0.9977804136994256
 30
0.0
 10
-9.855371800174202
 20
0.8211133665200526
 30
0.0
 10
-9.874653214586564
 20
0.6403873992076822
 30
0.0
 10
-9.876018328672693
 20
0.5182533701919927
 30
0.0
 10
-9.876708799079992
 20
0.4564783628013434
 30
0.0
  0
SPLINE
  5
74
330
1F
100
AcDbEntity
  8
0
  6
Continuous
 62
     7
370
    25
100
AcDbSpline
210
0.0
220
0.0
230
1.0
 70
     8
 71
     3
 72
    31
 73
    27
 74
     0
 42
0.000000001
 43
0.00000001
 40
0.0
 40
0.0
 40
0.0
 40
0.0
 40
0.0429150821010498
 40
0.0851299705846991
 40
0.1264733185549985
 40
0.1674530378853885
 40
0.2079763328949879
 40
0.2482493780637602
 40
0.2887499869834432
 40
0.3296698569108729
 40
0.3705372867119746
 40
0.4111285639171175
 40
0.4518189126736375
 40
0.4924058769342636
 40
0.5334858617420226
 40
0.5752630624415515
 40
0.6174406128021905
 40
0.6606716882923644
 40
0.7039402042434886
 40
0.74686752215987
 40
0.7890793003947228
 40
0.8311040424574035
 40
0.8732379898547745
 40
0.9151657696593328
 40
0.9573806581429825
 40
1.0
 40
1.0
 40
1.0
 40
1.0
 10
-4.394872861579993
 20
0.4854494626548591
 30
0.0
 10
-4.395593488353187
 20
0.5463809750527798
 30
0.0
 10
-4.397022984301955
 20
0.667249853874972
 30
0.0
 10
-4.415963257700045
 20
0.8459379853891424
 30
0.0
 10
-4.443093035323476
 20
1.020660000835237
 30
0.0
 10
-4.48219122192941
 20
1.190729967663142
 30
0.0
 10
-4.532585232779931
 20
1.356191238046046
 30
0.0
 10
-4.594723726541289
 20
1.516888409857754
 30
0.0
 10
-4.667997293723793
 20
1.67342014404342
 30
0.0
 10
-4.75209145554608
 20
1.825399557813518
 30
0.0
 10
-4.846619364525486
 20
1.971235501013187
 30
0.0
 10
-4.949911686862151
 20
2.110653518315074
 30
0.0
 10
-5.063751848733233
 20
2.241035388857684
 30
0.0
 10
-5.184887292806851
 20
2.365599887037384
 30
0.0
 10
-5.316343769800577
 20
2.481690324926801
 30
0.0
 10
-5.457525804160557
 20
2.589345212834675
 30
0.0
 10
-5.606719424902263
 20
2.691162608431497
 30
0.0
 10
-5.764686689475234
 20
2.783013160924731
 30
0.0
 10
-5.927714380235296
 20
2.867836744355815
 30
0.0
 10
-6.094999944964552
 20
2.940509725423821
 30
0.0
 10
-6.264648251192001
 20
3.002261577969387
 30
0.0
 10
-6.436227890950752
 20
3.054931501592206
 30
0.0
 10
-6.61118304139822
 20
3.09339248521244
 30
0.0
 10
-6.788331532905581
 20
3.120750713517018
 30
0.0
 10
-6.967428276248874
 20
3.139791435316463
 30
0.0
 10
-7.087875984808603
 20
3.141243742391247
 30
0.0
 10
-7.148386960701087
 20
3.141973357918531
 30
0.0
  0
SPLINE
  5
75
330
1F
100
AcDbEntity
  8
0
  6
Continuous
 62
     7
370
    25
100
AcDbSpline
210
0.0
220
0.0
230
1.0
 70
     8
 71
     3
 72
    31
 73
    27
 74
     0
 42
0.000000001
 43
0.00000001
 40
0.0
 40
0.0
 40
0.0
 40
0.0
 40
0.043633218265758
 40
0.0865377766972013
 40
0.1291773360898921
 40
0.1714363236638289
 40
0.2134158945709081
 40
0.2552659545538503
 40
0.2973694811566238
 40
0.3399407478985556
 40
0.3823474587518119
 40
0.4239529468152706
 40
0.4648711632610173
 40
0.5055722941182729
 40
0.5460025771083161
 40
0.5865679748069133
 40
0.6270647991481679
 40
0.6682706840331736
 40
0.7095492248503332
 40
0.750428153513189
 40
0.7910961944485934
 40
0.8320271447794342
 40
0.8731359553359671
 40
0.9146107643654491
 40
0.9569559864804374
 40
1.0
 40
1.0
 40
1.0
 40
1.0
 10
-7.148386960701087
 20
-2.178632110831469
 30
0.0
 10
-7.086208634827532
 20
-2.177777834865125
 30
0.0
 10
-6.962890339874391
 20
-2.176083549049145
 30
0.0
 10
-6.77946878326799
 20
-2.159018529438436
 30
0.0
 10
-6.599351673414627
 20
-2.131653439037603
 30
0.0
 10
-6.422791645925477
 20
-2.092253523189429
 30
0.0
 10
-6.249989083973369
 20
-2.04294274822577
 30
0.0
 10
-6.080222736937427
 20
-1.984360745001518
 30
0.0
 10
-5.915300858717989
 20
-1.911274192993861
 30
0.0
 10
-5.753142915186185
 20
-1.830522137909557
 30
0.0
 10
-5.597926185101012
 20
-1.738465706452627
 30
0.0
 10
-5.449753276376838
 20
-1.639585923572798
 30
0.0
 10
-5.312358972055529
 20
-1.530051645702128
 30
0.0
 10
-5.182307076973978
 20
-1.414500316687172
 30
0.0
 10
-5.060809329581587
 20
-1.290602068928313
 30
0.0
 10
-4.948687340595147
 20
-1.158517985097412
 30
0.0
 10
-4.846318653959662
 20
-1.017414347302048
 30
0.0
 10
-4.752060547946614
 20
-0.8695830138698247
 30
0.0
 10
-4.667975300022977
 20
-0.715084891265253
 30
0.0
 10
-4.594712872325627
 20
-0.5560352976988954
 30
0.0
 10
-4.532558594916221
 20
-0.3928258739541468
 30
0.0
 10
-4.482383134607862
 20
-0.2252212144643611
 30
0.0
 10
-4.443064412724028
 20
-0.0535396438308402
 30
0.0
 10
-4.415972309963013
 20
0.1224487126069694
 30
0.0
 10
-4.397021321792218
 20
0.3023917902742536
 30
0.0
 10
-4.395592911497211
 20
0.4240982395354049
 30
0.0
 10
-4.394872861579993
 20
0.4854494626548591
 30
0.0
  0
SPLINE
  5
76
330
1F
100
AcDbEntity
  8
0
  6
Continuous
 62
     7
370
    25
100
AcDbSpline
210
0.0
220
0.0
230
1.0
 70
     8
 71
     3
 72
    23
 73
    19
 74
     0
 42
0.000000001
 43
0.00000001
 40
0.0
 40
0.0
 40
0.0
 40
0.0
 40
0.0645039992970557
 40
0.1268993215900402
 40
0.1877465401000117
 40
0.2481497329298264
 40
0.3085860647627418
 40
0.3695830050869939
 40
0.4318269653810494
 40
0.4961797225241576
 40
0.5606678546118798
 40
0.6235044551176646
 40
0.6852604113304276
 40
0.7465368217511669
 40
0.8083273517367078
 40
0.8704861878877674
 40
0.934316883359246
 40
1.0
 40
1.0
 40
1.0
 40
1.0
 10
-9.876708799079992
 20
0.4564783628013434
 30
0.0
 10
-9.874418422780211
 20
0.3656398908346847
 30
0.0
 10
-9.869912544047173
 20
0.1869325146647387
 30
0.0
 10
-9.830464274455798
 20
-0.074949879771853
 30
0.0
 10
-9.769700794739183
 20
-0.3266280234493937
 30
0.0
 10
-9.680128641628322
 20
-0.5667248118841127
 30
0.0
 10
-9.56811151754375
 20
-0.7973040537156426
 30
0.0
 10
-9.429727465147106
 20
-1.016320263333931
 30
0.0
 10
-9.26577430497121
 20
-1.223832633741388
 30
0.0
 10
-9.07953572198115
 20
-1.418392457226098
 30
0.0
 10
-8.87594376452466
 20
-1.595975674000043
 30
0.0
 10
-8.659757822912006
 20
-1.751852044514788
 30
0.0
 10
-8.433293935286466
 20
-1.883738556118718
 30
0.0
 10
-8.19596153798027
 20
-1.99118244020614
 30
0.0
 10
-7.949027676636533
 20
-2.076321330472323
 30
0.0
 10
-7.69090117457878
 20
-2.134671402449753
 30
0.0
 10
-7.423301533336334
 20
-2.173073863266805
 30
0.0
 10
-7.240894799097942
 20
-2.176761779031475
 30
0.0
 10
-7.148386960701087
 20
-2.178632110831469
 30
0.0
  0
SPLINE
  5
77
330
1F
100
AcDbEntity
  8
0
  6
Continuous
 62
     7
370
    25
100
AcDbSpline
210
0.0
220
0.0
230
1.0
 70
     8
 71
     3
 72
    31
 73
    27
 74
     0
 42
0.000000001
 43
0.00000001
 40
0.0
 40
0.0
 40
0.0
 40
0.0
 40
0.0420233285259235
 40
0.0836449111687117
 40
0.124983795417394
 40
0.1662474611728952
 40
0.207701556096988
 40
0.2496310707996494
 40
0.2917417703321308
 40
0.3347428753531984
 40
0.3774601685508651
 40
0.4195563188419397
 40
0.4610441763330336
 40
0.5020962839443969
 40
0.5428907140755997
 40
0.5838008186265051
 40
0.6248635833101933
 40
0.6662246890691704
 40
0.7073991864779363
 40
0.7485566775366932
 40
0.78965459095218
 40
0.8307397264898322
 40
0.8720701422586046
 40
0.9139933952421326
 40
0.9564981300675882
 40
1.0
 40
1.0
 40
1.0
 40
1.0
 10
5.685558351798913
 20
3.141973357918531
 30
0.0
 10
5.625886001368781
 20
3.141245945013507
 30
0.0
 10
5.507111772243226
 20
3.13979807332038
 30
0.0
 10
5.33053691162962
 20
3.120726217573314
 30
0.0
 10
5.156284299257078
 20
3.093544341988016
 30
0.0
 10
4.984317948507399
 20
3.054771670656891
 30
0.0
 10
4.815357386935202
 20
3.001945288010661
 30
0.0
 10
4.647827698785251
 20
2.941147792547281
 30
0.0
 10
4.483256576141426
 20
2.86709129694604
 30
0.0
 10
4.322187316835823
 20
2.783420262859614
 30
0.0
 10
4.166038467126689
 20
2.690809117166744
 30
0.0
 10
4.018697065509206
 20
2.588455459029925
 30
0.0
 10
3.879781671475112
 20
2.478759609436483
 30
0.0
 10
3.749632410970041
 20
2.361465564768841
 30
0.0
 10
3.628631444866689
 20
2.235975999765176
 30
0.0
 10
3.514397199837622
 20
2.104193354419621
 30
0.0
 10
3.411508497476874
 20
1.962350907086767
 30
0.0
 10
3.31721458547052
 20
1.814295000620473
 30
0.0
 10
3.232833662824909
 20
1.660218481305195
 30
0.0
 10
3.157799359665669
 20
1.50174345838195
 30
0.0
 10
3.096421391948665
 20
1.33757722305904
 30
0.0
 10
3.046364736073628
 20
1.169500809772849
 30
0.0
 10
3.004864353244058
 20
0.9977804136994256
 30
0.0
 10
2.9785735123258
 20
0.8211133665200526
 30
0.0
 10
2.959292097913437
 20
0.6403873992076822
 30
0.0
 10
2.957926983827307
 20
0.5182533701919927
 30
0.0
 10
2.957236513420008
 20
0.4564783628013434
 30
0.0
  0
SPLINE
  5
78
330
1F
100
AcDbEntity
  8
0
  6
Continuous
 62
     7
370
    25
100
AcDbSpline
210
0.0
220
0.0
230
1.0
 70
     8
 71
     3
 72
    31
 73
    27
 74
     0
 42
0.000000001
 43
0.00000001
 40
0.0
 40
0.0
 40
0.0
 40
0.0
 40
0.0429150821010498
 40
0.0851299705846991
 40
0.1264733185549985
 40
0.1674530378853884
 40
0.2079763328949878
 40
0.2482493780637602
 40
0.2887499869834432
 40
0.3296698569108726
 40
0.3705372867119746
 40
0.4111285639171173
 40
0.4518189126736374
 40
0.4924058769342635
 40
0.5334858617420225
 40
0.5752630624415511
 40
0.6174406128021902
 40
0.6606716882923641
 40
0.7039402042434886
 40
0.7468675221598697
 40
0.7890793003947224
 40
0.8311040424574037
 40
0.8732379898547744
 40
0.9151657696593327
 40
0.957380658142982
 40
1.0
 40
1.0
 40
1.0
 40
1.0
 10
8.439072450920008
 20
0.4854494626548591
 30
0.0
 10
8.438351824146816
 20
0.5463809750527798
 30
0.0
 10
8.436922328198046
 20
0.667249853874972
 30
0.0
 10
8.41798205479995
 20
0.8459379853891416
 30
0.0
 10
8.390852277176524
 20
1.020660000835237
 30
0.0
 10
8.35175409057059
 20
1.190729967663143
 30
0.0
 10
8.30136007972007
 20
1.356191238046045
 30
0.0
 10
8.239221585958713
 20
1.516888409857755
 30
0.0
 10
8.165948018776207
 20
1.67342014404342
 30
0.0
 10
8.081853856953924
 20
1.825399557813519
 30
0.0
 10
7.987325947974513
 20
1.971235501013185
 30
0.0
 10
7.88403362563785
 20
2.110653518315075
 30
0.0
 10
7.770193463766766
 20
2.241035388857684
 30
0.0
 10
7.64905801969315
 20
2.365599887037383
 30
0.0
 10
7.517601542699422
 20
2.481690324926801
 30
0.0
 10
7.376419508339445
 20
2.589345212834675
 30
0.0
 10
7.227225887597735
 20
2.691162608431496
 30
0.0
 10
7.069258623024772
 20
2.783013160924732
 30
0.0
 10
6.906230932264704
 20
2.867836744355813
 30
0.0
 10
6.738945367535445
 20
2.940509725423821
 30
0.0
 10
6.569297061308004
 20
3.002261577969389
 30
0.0
 10
6.397717421549251
 20
3.054931501592205
 30
0.0
 10
6.22276227110178
 20
3.093392485212442
 30
0.0
 10
6.04561377959442
 20
3.120750713517018
 30
0.0
 10
5.866517036251125
 20
3.139791435316463
 30
0.0
 10
5.746069327691396
 20
3.141243742391247
 30
0.0
 10
5.685558351798913
 20
3.141973357918531
 30
0.0
  0
SPLINE
  5
79
330
1F
100
AcDbEntity
  8
0
  6
Continuous
 62
     7
370
    25
100
AcDbSpline
210
0.0
220
0.0
230
1.0
 70
     8
 71
     3
 72
    31
 73
    27
 74
     0
 42
0.000000001
 43
0.00000001
 40
0.0
 40
0.0
 40
0.0
 40
0.0
 40
0.043633218265758
 40
0.0865377766972011
 40
0.1291773360898921
 40
0.1714363236638288
 40
0.2134158945709081
 40
0.2552659545538503
 40
0.2973694811566243
 40
0.3399407478985561
 40
0.3823474587518119
 40
0.4239529468152711
 40
0.4648711632610176
 40
0.5055722941182729
 40
0.5460025771083161
 40
0.5865679748069136
 40
0.627064799148168
 40
0.6682706840331738
 40
0.7095492248503333
 40
0.7504281535131891
 40
0.7910961944485934
 40
0.8320271447794344
 40
0.8731359553359671
 40
0.9146107643654491
 40
0.9569559864804374
 40
1.0
 40
1.0
 40
1.0
 40
1.0
 10
5.685558351798913
 20
-2.178632110831469
 30
0.0
 10
5.747736677672466
 20
-2.177777834865125
 30
0.0
 10
5.871054972625607
 20
-2.176083549049145
 30
0.0
 10
6.054476529232012
 20
-2.159018529438436
 30
0.0
 10
6.234593639085372
 20
-2.131653439037604
 30
0.0
 10
6.411153666574525
 20
-2.092253523189428
 30
0.0
 10
6.583956228526628
 20
-2.04294274822577
 30
0.0
 10
6.753722575562576
 20
-1.984360745001517
 30
0.0
 10
6.918644453782012
 20
-1.911274192993862
 30
0.0
 10
7.080802397313819
 20
-1.830522137909558
 30
0.0
 10
7.236019127398989
 20
-1.738465706452627
 30
0.0
 10
7.384192036123164
 20
-1.639585923572799
 30
0.0
 10
7.521586340444475
 20
-1.530051645702127
 30
0.0
 10
7.651638235526023
 20
-1.414500316687172
 30
0.0
 10
7.773135982918414
 20
-1.290602068928312
 30
0.0
 10
7.885257971904853
 20
-1.158517985097413
 30
0.0
 10
7.98762665854034
 20
-1.017414347302047
 30
0.0
 10
8.081884764553386
 20
-0.8695830138698247
 30
0.0
 10
8.165970012477024
 20
-0.715084891265253
 30
0.0
 10
8.239232440174373
 20
-0.5560352976988958
 30
0.0
 10
8.301386717583778
 20
-0.3928258739541455
 30
0.0
 10
8.35156217789214
 20
-0.2252212144643623
 30
0.0
 10
8.390880899775972
 20
-0.0535396438308394
 30
0.0
 10
8.417973002536984
 20
0.1224487126069694
 30
0.0
 10
8.436923990707783
 20
0.3023917902742536
 30
0.0
 10
8.438352401002792
 20
0.4240982395354049
 30
0.0
 10
8.439072450920008
 20
0.4854494626548591
 30
0.0
  0
SPLINE
  5
7A
330
1F
100
AcDbEntity
  8
0
  6
Continuous
 62
     7
370
    25
100
AcDbSpline
210
0.0
220
0.0
230
1.0
 70
     8
 71
     3
 72
    23
 73
    19
 74
     0
 42
0.000000001
 43
0.00000001
 40
0.0
 40
0.0
 40
0.0
 40
0.0
 40
0.0645039992970558
 40
0.1268993215900402
 40
0.1877465401000117
 40
0.2481497329298264
 40
0.3085860647627418
 40
0.3695830050869942
 40
0.4318269653810494
 40
0.4961797225241577
 40
0.56066785461188
 40
0.6235044551176647
 40
0.6852604113304277
 40
0.7465368217511671
 40
0.808327351736708
 40
0.8704861878877677
 40
0.9343168833592467
 40
1.0
 40
1.0
 40
1.0
 40
1.0
 10
2.957236513420008
 20
0.4564783628013434
 30
0.0
 10
2.959526889719791
 20
0.3656398908346847
 30
0.0
 10
2.964032768452828
 20
0.1869325146647387
 30
0.0
 10
3.003481038044206
 20
-0.074949879771853
 30
0.0
 10
3.064244517760818
 20
-0.3266280234493941
 30
0.0
 10
3.153816670871682
 20
-0.5667248118841127
 30
0.0
 10
3.265833794956248
 20
-0.7973040537156431
 30
0.0
 10
3.404217847352896
 20
-1.01632026333393
 30
0.0
 10
3.568171007528792
 20
-1.223832633741388
 30
0.0
 10
3.754409590518851
 20
-1.418392457226098
 30
0.0
 10
3.958001547975341
 20
-1.595975674000044
 30
0.0
 10
4.174187489587993
 20
-1.751852044514787
 30
0.0
 10
4.400651377213538
 20
-1.883738556118719
 30
0.0
 10
4.637983774519727
 20
-1.99118244020614
 30
0.0
 10
4.884917635863471
 20
-2.076321330472324
 30
0.0
 10
5.14304413792122
 20
-2.134671402449754
 30
0.0
 10
5.410643779163668
 20
-2.173073863266805
 30
0.0
 10
5.593050513402058
 20
-2.176761779031474
 30
0.0
 10
5.685558351798913
 20
-2.178632110831469
 30
0.0
  0
SPLINE
  5
7B
330
1F
100
AcDbEntity
  8
0
  6
Continuous
 62
     7
370
    25
100
AcDbSpline
210
0.0
220
0.0
230
1.0
 70
     8
 71
     3
 72
    23
 73
    19
 74
     0
 42
0.000000001
 43
0.00000001
 40
0.0
 40
0.0
 40
0.0
 40
0.0
 40
0.0652265038922757
 40
0.1285689957067287
 40
0.1903203781044671
 40
0.251377988624063
 40
0.3123875283336942
 40
0.3737887042767236
 40
0.4364311597804504
 40
0.5005667553098538
 40
0.5646867953847439
 40
0.6271355178835134
 40
0.6884554088949798
 40
0.7492457464637473
 40
0.8101551773646783
 40
0.8716709256529234
 40
0.9347734961077243
 40
1.0
 40
1.0
 40
1.0
 40
1.0
 10
-3.830566220954993
 20
0.4841898496177497
 30
0.0
 10
-3.833350780254476
 20
0.3710825110727496
 30
0.0
 10
-3.838839469226853
 20
0.1481348432380838
 30
0.0
 10
-3.885853459649163
 20
-0.1790982546053367
 30
0.0
 10
-3.959586410188423
 20
-0.4936606110727974
 30
0.0
 10
-4.064858591640221
 20
-0.7950270964669006
 30
0.0
 10
-4.200006285076953
 20
-1.083515621948635
 30
0.0
 10
-4.366467608010837
 20
-1.358367100003842
 30
0.0
 10
-4.562547223481698
 20
-1.619671636403695
 30
0.0
 10
-4.78569328740983
 20
-1.864566619692964
 30
0.0
 10
-5.028950477539372
 20
-2.089133085666477
 30
0.0
 10
-5.289866539190095
 20
-2.284813261068149
 30
0.0
 10
-5.562573572573438
 20
-2.453195031681925
 30
0.0
 10
-5.850580877223915
 20
-2.587548993259713
 30
0.0
 10
-6.150068842380667
 20
-2.694933317632989
 30
0.0
 10
-6.463717871436063
 20
-2.768148191937972
 30
0.0
 10
-6.790058272331899
 20
-2.815374654771592
 30
0.0
 10
-7.012600963845414
 20
-2.820797624201046
 30
0.0
 10
-7.125713926033118
 20
-2.823553985831469
 30
0.0
  0
SPLINE
  5
7C
330
1F
100
AcDbEntity
  8
0
  6
Continuous
 62
     7
370
    25
100
AcDbSpline
210
0.0
220
0.0
230
1.0
 70
     8
 71
     3
 72
    23
 73
    19
 74
     0
 42
0.000000001
 43
0.00000001
 40
0.0
 40
0.0
 40
0.0
 40
0.0
 40
0.06657003521518
 40
0.1307490414821777
 40
0.1934128000295039
 40
0.2549893988897085
 40
0.3161135558759002
 40
0.3772617579089842
 40
0.4394007841555529
 40
0.5029705893719758
 40
0.5665249763607312
 40
0.6282311025133087
 40
0.6890906105998628
 40
0.7493446689958042
 40
0.8101695933722064
 40
0.8716098243170436
 40
0.9348691840727638
 40
1.0
 40
1.0
 40
1.0
 40
1.0
 10
-7.176098447517492
 20
3.786895232918531
 30
0.0
 10
-7.059666273094715
 20
3.783946203475911
 30
0.0
 10
-6.830983876363872
 20
3.778154066342758
 30
0.0
 10
-6.494891086476892
 20
3.733816376643351
 30
0.0
 10
-6.174032838980293
 20
3.657111201850097
 30
0.0
 10
-5.865795404066575
 20
3.554952982571312
 30
0.0
 10
-5.573865709080125
 20
3.418675415041102
 30
0.0
 10
-5.296046410849764
 20
3.253956804091513
 30
0.0
 10
-5.032998528909062
 20
3.059071460816238
 30
0.0
 10
-4.788267542992966
 20
2.835525883591126
 30
0.0
 10
-4.564312845119498
 20
2.592300291703067
 30
0.0
 10
-4.367003163451172
 20
2.332735890149344
 30
0.0
 10
-4.201642916489916
 20
2.058402096016418
 30
0.0
 10
-4.065847903940168
 20
1.770123289537902
 30
0.0
 10
-3.959313914554691
 20
1.468551429104887
 30
0.0
 10
-3.885800066781409
 20
1.152078770552584
 30
0.0
 10
-3.838841100537062
 20
0.8227558222532131
 30
0.0
 10
-3.833351188386151
 20
0.598136547903398
 30
0.0
 10
-3.830566220954993
 20
0.4841898496177497
 30
0.0
  0
SPLINE
  5
7D
330
1F
100
AcDbEntity
  8
0
  6
Continuous
 62
     7
370
    25
100
AcDbSpline
210
0.0
220
0.0
230
1.0
 70
     8
 71
     3
 72
    31
 73
    27
 74
     0
 42
0.000000001
 43
0.00000001
 40
0.0
 40
0.0
 40
0.0
 40
0.0
 40
0.0432089861713365
 40
0.0858728716306187
 40
0.1281200066967028
 40
0.170151964454199
 40
0.2119176209878612
 40
0.2537530026191241
 40
0.2960064088559504
 40
0.3384433571447841
 40
0.3810153681620336
 40
0.4228204794407606
 40
0.4640890557943131
 40
0.5051258486836863
 40
0.5459749706852409
 40
0.5869852111338596
 40
0.6283385916346623
 40
0.6700838015912061
 40
0.711991602363722
 40
0.7530391548630184
 40
0.7940493953116373
 40
0.8348855427015816
 40
0.8754983129295131
 40
0.9165472998303792
 40
0.9580037786449608
 40
1.0
 40
1.0
 40
1.0
 40
1.0
 10
-10.44101543970499
 20
0.4539591367271247
 30
0.0
 10
-10.44005493062188
 20
0.5287550611981079
 30
0.0
 10
-10.43814602970791
 20
0.677403326054898
 30
0.0
 10
-10.41516488332468
 20
0.8981415380305839
 30
0.0
 10
-10.38181752341956
 20
1.115329834988153
 30
0.0
 10
-10.33402537645685
 20
1.32835061535853
 30
0.0
 10
-10.27151977808651
 20
1.536682419041467
 30
0.0
 10
-10.1977670160432
 20
1.741762035901664
 30
0.0
 10
-10.10768737031985
 20
1.941511165037927
 30
0.0
 10
-10.00585672727931
 20
2.136876071535917
 30
0.0
 10
-9.892202582279811
 20
2.324811296114393
 30
0.0
 10
-9.766666041223353
 20
2.502455199002721
 30
0.0
 10
-9.633656461416486
 20
2.671298457981865
 30
0.0
 10
-9.487840899130875
 20
2.826965699337662
 30
0.0
 10
-9.334025126539034
 20
2.973985434306731
 30
0.0
 10
-9.169713923701858
 20
3.110098313386396
 30
0.0
 10
-8.995909895452588
 20
3.23653170393162
 30
0.0
 10
-8.81186518588992
 20
3.350470664362096
 30
0.0
 10
-8.622114764538916
 20
3.453520254729819
 30
0.0
 10
-8.426510220888355
 20
3.541950661061509
 30
0.0
 10
-8.227708156639553
 20
3.617848586692146
 30
0.0
 10
-8.02477744164864
 20
3.679364560286233
 30
0.0
 10
-7.818256960580531
 20
3.727929453296529
 30
0.0
 10
-7.607695975456012
 20
3.760999517413695
 30
0.0
 10
-7.39326223324879
 20
3.784039277582693
 30
0.0
 10
-7.248797824323829
 20
3.785939151901603
 30
0.0
 10
-7.176098447517492
 20
3.786895232918531
 30
0.0
  0
SPLINE
  5
7E
330
1F
100
AcDbEntity
  8
0
  6
Continuous
 62
     7
370
    25
100
AcDbSpline
210
0.0
220
0.0
230
1.0
 70
     8
 71
     3
 72
    23
 73
    19
 74
     0
 42
0.000000001
 43
0.00000001
 40
0.0
 40
0.0
 40
0.0
 40
0.0
 40
0.0658188768433071
 40
0.1297465269068314
 40
0.192071954488006
 40
0.2534594242982026
 40
0.3145695877964204
 40
0.3762798811880262
 40
0.4390256536685597
 40
0.5032670288290858
 40
0.5674928228792949
 40
0.6297047956052447
 40
0.6909996492157555
 40
0.7514516509174469
 40
0.8120043642646942
 40
0.8731496810680426
 40
0.9356354837317855
 40
0.9999999999999999
 40
0.9999999999999999
 40
0.9999999999999999
 40
0.9999999999999999
 10
-7.125713926033118
 20
-2.823553985831469
 30
0.0
 10
-7.239660033030219
 20
-2.820770406864927
 30
0.0
 10
-7.464278141792908
 20
-2.815283231747374
 30
0.0
 10
-7.794014921119577
 20
-2.768246555581116
 30
0.0
 10
-8.110709888993863
 20
-2.694692716003654
 30
0.0
 10
-8.413457393464064
 20
-2.58957653049372
 30
0.0
 10
-8.702426259867991
 20
-2.453725027448472
 30
0.0
 10
-8.978181643088403
 20
-2.288073583151105
 30
0.0
 10
-9.239616698103545
 20
-2.091516205542867
 30
0.0
 10
-9.484563927857792
 20
-1.868442501003389
 30
0.0
 10
-9.708684355362514
 20
-1.625597605279478
 30
0.0
 10
-9.90407797817194
 20
-1.365393005663688
 30
0.0
 10
-10.06976667296852
 20
-1.092933653046056
 30
0.0
 10
-10.20516203055886
 20
-0.8074634331774145
 30
0.0
 10
-10.31235329374933
 20
-0.5103623778168146
 30
0.0
 10
-10.38548227073477
 20
-0.1996486636128862
 30
0.0
 10
-10.43279660158747
 20
0.1229062816970592
 30
0.0
 10
-10.43824890990532
 20
0.3425239708786418
 30
0.0
 10
-10.44101543970499
 20
0.4539591367271247
 30
0.0
  0
SPLINE
  5
9F
330
1F
100
AcDbEntity
  8
0
  6
Continuous
 62
     7
370
    25
100
AcDbSpline
210
0.0
220
0.0
230
1.0
 70
     8
 71
     3
 72
    23
 73
    19
 74
     0
 42
0.000000001
 43
0.00000001
 40
0.0
 40
0.0
 40
0.0
 40
0.0
 40
0.0665700352151802
 40
0.1307490414821783
 40
0.1934128000295042
 40
0.2549893988897087
 40
0.3161135558759004
 40
0.3772617579089843
 40
0.439400784155553
 40
0.5029705893719761
 40
0.5665249763607316
 40
0.6282311025133089
 40
0.689090610599863
 40
0.7493446689958044
 40
0.8101695933722064
 40
0.8716098243170436
 40
0.9348691840727638
 40
1.0
 40
1.0
 40
1.0
 40
1.0
 10
5.657846864982507
 20
3.786895232918531
 30
0.0
 10
5.774279039405285
 20
3.783946203475911
 30
0.0
 10
6.002961436136127
 20
3.778154066342758
 30
0.0
 10
6.339054226023109
 20
3.733816376643349
 30
0.0
 10
6.659912473519709
 20
3.657111201850098
 30
0.0
 10
6.968149908433423
 20
3.554952982571311
 30
0.0
 10
7.260079603419877
 20
3.418675415041103
 30
0.0
 10
7.537898901650234
 20
3.253956804091512
 30
0.0
 10
7.800946783590938
 20
3.059071460816237
 30
0.0
 10
8.045677769507035
 20
2.835525883591127
 30
0.0
 10
8.269632467380504
 20
2.592300291703069
 30
0.0
 10
8.46694214904883
 20
2.332735890149344
 30
0.0
 10
8.632302396010083
 20
2.058402096016417
 30
0.0
 10
8.768097408559832
 20
1.770123289537902
 30
0.0
 10
8.87463139794531
 20
1.468551429104886
 30
0.0
 10
8.948145245718594
 20
1.152078770552584
 30
0.0
 10
8.99510421196294
 20
0.8227558222532131
 30
0.0
 10
9.00059412411385
 20
0.598136547903398
 30
0.0
 10
9.003379091545007
 20
0.4841898496177497
 30
0.0
  0
SPLINE
  5
A0
330
1F
100
AcDbEntity
  8
0
  6
Continuous
 62
     7
370
    25
100
AcDbSpline
210
0.0
220
0.0
230
1.0
 70
     8
 71
     3
 72
    31
 73
    27
 74
     0
 42
0.000000001
 43
0.00000001
 40
0.0
 40
0.0
 40
0.0
 40
0.0
 40
0.0432089861713365
 40
0.0858728716306188
 40
0.1281200066967028
 40
0.1701519644541991
 40
0.2119176209878613
 40
0.2537530026191242
 40
0.2960064088559506
 40
0.3384433571447842
 40
0.3810153681620338
 40
0.4228204794407608
 40
0.4640890557943134
 40
0.5051258486836865
 40
0.5459749706852411
 40
0.5869852111338598
 40
0.6283385916346625
 40
0.6700838015912063
 40
0.7119916023637224
 40
0.7530391548630191
 40
0.7940493953116377
 40
0.834885542701582
 40
0.8754983129295132
 40
0.9165472998303799
 40
0.9580037786449608
 40
1.0
 40
1.0
 40
1.0
 40
1.0
 10
2.392929872795008
 20
0.4539591367271247
 30
0.0
 10
2.393890381878121
 20
0.5287550611981079
 30
0.0
 10
2.395799282792089
 20
0.6774033260548975
 30
0.0
 10
2.418780429175318
 20
0.8981415380305839
 30
0.0
 10
2.452127789080446
 20
1.115329834988153
 30
0.0
 10
2.499919936043146
 20
1.32835061535853
 30
0.0
 10
2.562425534413497
 20
1.536682419041467
 30
0.0
 10
2.636178296456796
 20
1.741762035901664
 30
0.0
 10
2.726257942180149
 20
1.941511165037926
 30
0.0
 10
2.828088585220694
 20
2.136876071535917
 30
0.0
 10
2.941742730220191
 20
2.324811296114393
 30
0.0
 10
3.067279271276653
 20
2.502455199002721
 30
0.0
 10
3.200288851083512
 20
2.671298457981866
 30
0.0
 10
3.346104413369126
 20
2.826965699337662
 30
0.0
 10
3.499920185960965
 20
2.973985434306733
 30
0.0
 10
3.664231388798144
 20
3.110098313386395
 30
0.0
 10
3.838035417047409
 20
3.236531703931622
 30
0.0
 10
4.022080126610086
 20
3.350470664362097
 30
0.0
 10
4.211830547961086
 20
3.453520254729816
 30
0.0
 10
4.407435091611648
 20
3.541950661061509
 30
0.0
 10
4.60623715586045
 20
3.617848586692147
 30
0.0
 10
4.809167870851362
 20
3.679364560286233
 30
0.0
 10
5.015688351919469
 20
3.727929453296529
 30
0.0
 10
5.226249337043988
 20
3.760999517413693
 30
0.0
 10
5.44068307925121
 20
3.784039277582696
 30
0.0
 10
5.585147488176169
 20
3.785939151901603
 30
0.0
 10
5.657846864982507
 20
3.786895232918531
 30
0.0
  0
SPLINE
  5
A1
330
1F
100
AcDbEntity
  8
0
  6
Continuous
 62
     7
370
    25
100
AcDbSpline
210
0.0
220
0.0
230
1.0
 70
     8
 71
     3
 72
    23
 73
    19
 74
     0
 42
0.000000001
 43
0.00000001
 40
0.0
 40
0.0
 40
0.0
 40
0.0
 40
0.0658188768433069
 40
0.1297465269068316
 40
0.1920719544880061
 40
0.2534594242982024
 40
0.3145695877964205
 40
0.3762798811880263
 40
0.4390256536685598
 40
0.5032670288290859
 40
0.5674928228792948
 40
0.6297047956052448
 40
0.6909996492157554
 40
0.7514516509174468
 40
0.8120043642646942
 40
0.8731496810680427
 40
0.9356354837317856
 40
1.0
 40
1.0
 40
1.0
 40
1.0
 10
5.708231386466884
 20
-2.823553985831469
 30
0.0
 10
5.594285279469783
 20
-2.820770406864926
 30
0.0
 10
5.369667170707092
 20
-2.815283231747374
 30
0.0
 10
5.039930391380426
 20
-2.768246555581118
 30
0.0
 10
4.723235423506139
 20
-2.694692716003653
 30
0.0
 10
4.420487919035937
 20
-2.58957653049372
 30
0.0
 10
4.131519052632008
 20
-2.453725027448471
 30
0.0
 10
3.8557636694116
 20
-2.288073583151105
 30
0.0
 10
3.594328614396453
 20
-2.091516205542868
 30
0.0
 10
3.349381384642212
 20
-1.868442501003389
 30
0.0
 10
3.125260957137484
 20
-1.625597605279477
 30
0.0
 10
2.929867334328062
 20
-1.365393005663689
 30
0.0
 10
2.764178639531479
 20
-1.092933653046056
 30
0.0
 10
2.628783281941141
 20
-0.8074634331774141
 30
0.0
 10
2.521592018750669
 20
-0.5103623778168146
 30
0.0
 10
2.448463041765242
 20
-0.1996486636128866
 30
0.0
 10
2.401148710912532
 20
0.1229062816970592
 30
0.0
 10
2.395696402594684
 20
0.3425239708786418
 30
0.0
 10
2.392929872795008
 20
0.4539591367271247
 30
0.0
  0
SPLINE
  5
A2
330
1F
100
AcDbEntity
  8
0
  6
Continuous
 62
     7
370
    25
100
AcDbSpline
210
0.0
220
0.0
230
1.0
 70
     8
 71
     3
 72
    11
 73
     7
 74
     0
 42
0.000000001
 43
0.00000001
 40
0.0
 40
0.0
 40
0.0
 40
0.0
 40
0.2629516255674868
 40
0.5157066923583603
 40
0.7621092269531102
 40
1.0
 40
1.0
 40
1.0
 40
1.0
 10
-1.275567136482336
 20
-2.087939972159594
 30
0.0
 10
-1.240921557883556
 20
-2.101521051921059
 30
0.0
 10
-1.172973863301107
 20
-2.128156573596672
 30
0.0
 10
-1.069087170926311
 20
-2.157882406363151
 30
0.0
 10
-0.9657934227427878
 20
-2.17412771139518
 30
0.0
 10
-0.8973123906449968
 20
-2.177148340844474
 30
0.0
 10
-0.863673673347571
 20
-2.178632110831469
 30
0.0
  0
SPLINE
  5
A3
330
1F
100
AcDbEntity
  8
0
  6
Continuous
 62
     7
370
    25
100
AcDbSpline
210
0.0
220
0.0
230
1.0
 70
     8
 71
     3
 72
    11
 73
     7
 74
     0
 42
0.000000001
 43
0.00000001
 40
0.0
 40
0.0
 40
0.0
 40
0.0
 40
0.2991842876765373
 40
0.5648989463568099
 40
0.798547868842619
 40
1.0
 40
1.0
 40
1.0
 40
1.0
 10
-2.079200254158118
 20
-1.614325470206469
 30
0.0
 10
-2.002481984080535
 20
-1.66722972225241
 30
0.0
 10
-1.85762788672901
 20
-1.767119848403882
 30
0.0
 10
-1.644726590852463
 20
-1.89562225565273
 30
0.0
 10
-1.456092057233578
 20
-2.005797090615758
 30
0.0
 10
-1.332698466402158
 20
-2.061943937670192
 30
0.0
 10
-1.275567136482336
 20
-2.087939972159594
 30
0.0
  0
SPLINE
  5
A5
330
1F
100
AcDbEntity
  8
0
  6
Continuous
 62
     7
370
    25
100
AcDbSpline
210
0.0
220
0.0
230
1.0
 70
     8
 71
     3
 72
    15
 73
    11
 74
     0
 42
0.000000001
 43
0.00000001
 40
0.0
 40
0.0
 40
0.0
 40
0.0
 40
0.1060709021051302
 40
0.2134216804124516
 40
0.3216854881303259
 40
0.4338579390981581
 40
0.5540812827743559
 40
0.6875870439665621
 40
0.8364658500651142
 40
1.0
 40
1.0
 40
1.0
 40
1.0
 10
-0.895163999275304
 20
-2.823553985831469
 30
0.0
 10
-0.9561725017928445
 20
-2.821612597962806
 30
0.0
 10
-1.078925649624431
 20
-2.817706396987426
 30
0.0
 10
-1.261619931055457
 20
-2.785868132993086
 30
0.0
 10
-1.443795484165131
 20
-2.736793001435344
 30
0.0
 10
-1.626419232473552
 20
-2.664925615410581
 30
0.0
 10
-1.813099258733514
 20
-2.567182253780433
 30
0.0
 10
-2.006363896268544
 20
-2.439293884508459
 30
0.0
 10
-2.20869912625318
 20
-2.281498567734006
 30
0.0
 10
-2.341974450168582
 20
-2.161060693795458
 30
0.0
 10
-2.411738095954992
 20
-2.09801687645647
 30
0.0
  0
SPLINE
  5
A6
330
1F
100
AcDbEntity
  8
0
  6
Continuous
 62
     7
370
    25
100
AcDbSpline
210
0.0
220
0.0
230
1.0
 70
     8
 71
     3
 72
    23
 73
    19
 74
     0
 42
0.000000001
 43
0.00000001
 40
0.0
 40
0.0
 40
0.0
 40
0.0
 40
0.0773606839426994
 40
0.148541953025043
 40
0.2140077372521337
 40
0.2729945033606874
 40
0.3264091957674677
 40
0.373880400729808
 40
0.4160199382657591
 40
0.4521255195126327
 40
0.5180017107054559
 40
0.5823669297335138
 40
0.6470437823418067
 40
0.7133304210644733
 40
0.7809119703509676
 40
0.8503949591306443
 40
0.9229229735922767
 40
0.9999999999999999
 40
0.9999999999999999
 40
0.9999999999999999
 40
0.9999999999999999
 10
0.5710255759200089
 20
-0.6204907839271723
 30
0.0
 10
0.5704615997262374
 20
-0.6990100989050742
 30
0.0
 10
0.5693786966156017
 20
-0.8497767648984232
 30
0.0
 10
0.5634241324424303
 20
-1.066934948005751
 30
0.0
 10
0.5524049218140422
 20
-1.265223399846016
 30
0.0
 10
0.5363525635778666
 20
-1.4450930059681
 30
0.0
 10
0.5149370537765278
 20
-1.60598026831253
 30
0.0
 10
0.490430018072864
 20
-1.749128329765637
 30
0.0
 10
0.4607636508748046
 20
-1.873342476121873
 30
0.0
 10
0.4160893511930905
 20
-2.01281967814775
 30
0.0
 10
0.34283617672501
 20
-2.165786319971885
 30
0.0
 10
0.2325861148077159
 20
-2.330990008374755
 30
0.0
 10
0.0956287060568473
 20
-2.475494106543355
 30
0.0
 10
-0.063010111606263
 20
-2.600989282452844
 30
0.0
 10
-0.2447168470826603
 20
-2.700981287425287
 30
0.0
 10
-0.4457496158099194
 20
-2.772763485601299
 30
0.0
 10
-0.664870893689095
 20
-2.816547388703435
 30
0.0
 10
-0.8168591382247465
 20
-2.821171584442807
 30
0.0
 10
-0.895163999275304
 20
-2.823553985831469
 30
0.0
  0
SPLINE
  5
AA
330
1F
100
AcDbEntity
  8
0
  6
Continuous
 62
     7
370
    25
100
AcDbSpline
210
0.0
220
0.0
230
1.0
 70
     8
 71
     3
 72
    23
 73
    19
 74
     0
 42
0.000000001
 43
0.00000001
 40
0.0
 40
0.0
 40
0.0
 40
0.0
 40
0.0623263659914401
 40
0.1231962451944471
 40
0.1840362202545517
 40
0.2469640854288926
 40
0.3106993957895713
 40
0.3732676370734437
 40
0.4365875799673888
 40
0.5021247910366488
 40
0.5390047220341629
 40
0.5832553755259853
 40
0.6344465152828118
 40
0.6926760461021158
 40
0.7585704862865281
 40
0.8316586747921145
 40
0.9119171022748346
 40
1.0
 40
1.0
 40
1.0
 40
1.0
 10
-0.863673673347571
 20
-2.178632110831469
 30
0.0
 10
-0.8202276475648347
 20
-2.176794697894417
 30
0.0
 10
-0.7343508735878419
 20
-2.173162809990867
 30
0.0
 10
-0.6095540792186702
 20
-2.141095371780947
 30
0.0
 10
-0.4901577016637964
 20
-2.092148946958023
 30
0.0
 10
-0.3804419039957742
 20
-2.020481521892999
 30
0.0
 10
-0.2793213741738941
 20
-1.935267745458167
 30
0.0
 10
-0.1958836761621234
 20
-1.832223771071517
 30
0.0
 10
-0.1263255105610423
 20
-1.718023153209077
 30
0.0
 10
-0.0844660252053776
 20
-1.609921039887735
 30
0.0
 10
-0.0577963816501917
 20
-1.511331437581476
 30
0.0
 10
-0.0408697875736323
 20
-1.420724875472283
 30
0.0
 10
-0.0260684732897493
 20
-1.314796565226806
 30
0.0
 10
-0.0131663263761501
 20
-1.19342006584719
 30
0.0
 10
-0.0056127087744123
 20
-1.056352373512157
 30
0.0
 10
0.002862193009105
 20
-0.9039959572430482
 30
0.0
 10
0.0059258102921733
 20
-0.7359666955691003
 30
0.0
 10
0.0064464932155949
 20
-0.6188107808603703
 30
0.0
 10
0.0067189352950092
 20
-0.5575101320717036
 30
0.0
  0
SPLINE
  5
AB
330
1F
100
AcDbEntity
  8
0
  6
Continuous
 62
     7
370
    25
100
AcDbSpline
210
0.0
220
0.0
230
1.0
 70
     8
 71
     3
 72
    23
 73
    19
 74
     0
 42
0.000000001
 43
0.00000001
 40
0.0
 40
0.0
 40
0.0
 40
0.0
 40
0.0652265038922757
 40
0.1285689957067287
 40
0.1903203781044672
 40
0.251377988624063
 40
0.3123875283336942
 40
0.3737887042767234
 40
0.4364311597804504
 40
0.500566755309854
 40
0.5646867953847441
 40
0.6271355178835137
 40
0.6884554088949799
 40
0.7492457464637474
 40
0.8101551773646788
 40
0.8716709256529231
 40
0.9347734961077242
 40
1.0
 40
1.0
 40
1.0
 40
1.0
 10
9.003379091545007
 20
0.4841898496177497
 30
0.0
 10
9.000594532245525
 20
0.3710825110727496
 30
0.0
 10
8.99510584327315
 20
0.1481348432380838
 30
0.0
 10
8.948091852850839
 20
-0.1790982546053367
 30
0.0
 10
8.874358902311572
 20
-0.4936606110727969
 30
0.0
 10
8.769086720859782
 20
-0.7950270964669006
 30
0.0
 10
8.63393902742305
 20
-1.083515621948635
 30
0.0
 10
8.467477704489166
 20
-1.358367100003843
 30
0.0
 10
8.2713980890183
 20
-1.619671636403694
 30
0.0
 10
8.048252025090171
 20
-1.864566619692964
 30
0.0
 10
7.804994834960628
 20
-2.089133085666477
 30
0.0
 10
7.544078773309908
 20
-2.284813261068148
 30
0.0
 10
7.271371739926564
 20
-2.453195031681926
 30
0.0
 10
6.983364435276089
 20
-2.587548993259713
 30
0.0
 10
6.683876470119333
 20
-2.694933317632987
 30
0.0
 10
6.370227441063942
 20
-2.768148191937975
 30
0.0
 10
6.043887040168101
 20
-2.815374654771591
 30
0.0
 10
5.821344348654588
 20
-2.820797624201046
 30
0.0
 10
5.708231386466884
 20
-2.823553985831469
 30
0.0
  0
LINE
  5
AC
330
1F
100
AcDbEntity
  8
0
  6
Continuous
 62
     7
370
    25
100
AcDbLine
 10
73.5
 20
36.0
 30
0.0
 11
73.5
 21
33.0
 31
0.0
  0
LINE
  5
AD
330
1F
100
AcDbEntity
  8
0
  6
Continuous
 62
     7
370
    25
100
AcDbLine
 10
76.5
 20
36.0
 30
0.0
 11
73.5
 21
36.0
 31
0.0
  0
LINE
  5
AE
330
1F
100
AcDbEntity
  8
0
  6
Continuous
 62
     7
370
    25
100
AcDbLine
 10
76.5
 20
20.4
 30
0.0
 11
76.5
 21
36.0
 31
0.0
  0
LINE
  5
AF
330
1F
100
AcDbEntity
  8
0
  6
Continuous
 62
     7
370
    25
100
AcDbLine
 10
73.5
 20
20.4
 30
0.0
 11
76.5
 21
20.4
 31
0.0
  0
LINE
  5
B0
330
1F
100
AcDbEntity
  8
0
  6
Continuous
 62
     7
370
    25
100
AcDbLine
 10
73.5
 20
4.8
 30
0.0
 11
73.5
 21
20.4
 31
0.0
  0
LINE
  5
B1
330
1F
100
AcDbEntity
  8
0
  6
Continuous
 62
     7
370
    25
100
AcDbLine
 10
76.5
 20
4.8
 30
0.0
 11
73.5
 21
4.8
 31
0.0
  0
LINE
  5
B2
330
1F
100
AcDbEntity
  8
0
  6
Continuous
 62
     7
370
    25
100
AcDbLine
 10
76.5
 20
-10.8
 30
0.0
 11
76.5
 21
4.8
 31
0.0
  0
LINE
  5
B3
330
1F
100
AcDbEntity
  8
0
  6
Continuous
 62
     7
370
    25
100
AcDbLine
 10
73.5
 20
-10.8
 30
0.0
 11
76.5
 21
-10.8
 31
0.0
  0
LINE
  5
B4
330
1F
100
AcDbEntity
  8
0
  6
Continuous
 62
     7
370
    25
100
AcDbLine
 10
73.5
 20
-26.4
 30
0.0
 11
73.5
 21
-10.8
 31
0.0
  0
LINE
  5
B5
330
1F
100
AcDbEntity
  8
0
  6
Continuous
 62
     7
370
    25
100
AcDbLine
 10
76.5
 20
-26.4
 30
0.0
 11
73.5
 21
-26.4
 31
0.0
  0
LINE
  5
B6
330
1F
100
AcDbEntity
  8
0
  6
Continuous
 62
     7
370
    25
100
AcDbLine
 10
76.5
 20
-42.0
 30
0.0
 11
76.5
 21
-26.4
 31
0.0
  0
LINE
  5
B7
330
1F
100
AcDbEntity
  8
0
  6
Continuous
 62
     7
370
    25
100
AcDbLine
 10
-76.5
 20
-42.0
 30
0.0
 11
76.5
 21
-42.0
 31
0.0
  0
LINE
  5
B8
330
1F
100
AcDbEntity
  8
0
  6
Continuous
 62
     7
370
    25
100
AcDbLine
 10
-76.5
 20
-26.4
 30
0.0
 11
-76.5
 21
-42.0
 31
0.0
  0
LINE
  5
B9
330
1F
100
AcDbEntity
  8
0
  6
Continuous
 62
     7
370
    25
100
AcDbLine
 10
-73.5
 20
-26.4
 30
0.0
 11
-76.5
 21
-26.4
 31
0.0
  0
LINE
  5
BA
330
1F
100
AcDbEntity
  8
0
  6
Continuous
 62
     7
370
    25
100
AcDbLine
 10
-73.5
 20
-10.8
 30
0.0
 11
-73.5
 21
-26.4
 31
0.0
  0
LINE
  5
BB
330
1F
100
AcDbEntity
  8
0
  6
Continuous
 62
     7
370
    25
100
AcDbLine
 10
-76.5
 20
-10.8
 30
0.0
 11
-73.5
 21
-10.8
 31
0.0
  0
LINE
  5
BC
330
1F
100
AcDbEntity
  8
0
  6
Continuous
 62
     7
370
    25
100
AcDbLine
 10
-76.5
 20
4.8
 30
0.0
 11
-76.5
 21
-10.8
 31
0.0
  0
LINE
  5
BD
330
1F
100
AcDbEntity
  8
0
  6
Continuous
 62
     7
370
    25
100
AcDbLine
 10
-73.5
 20
4.8
 30
0.0
 11
-76.5
 21
4.8
 31
0.0
  0
LINE
  5
BE
330
1F
100
AcDbEntity
  8
0
  6
Continuous
 62
     7
370
    25
100
AcDbLine
 10
-73.5
 20
20.4
 30
0.0
 11
-73.5
 21
4.8
 31
0.0
  0
LINE
  5
BF
330
1F
100
AcDbEntity
  8
0
  6
Continuous
 62
     7
370
    25
100
AcDbLine
 10
-76.5
 20
20.4
 30
0.0
 11
-73.5
 21
20.4
 31
0.0
  0
LINE
  5
C0
330
1F
100
AcDbEntity
  8
0
  6
Continuous
 62
     7
370
    25
100
AcDbLine
 10
-76.5
 20
36.0
 30
0.0
 11
-76.5
 21
20.4
 31
0.0
  0
LINE
  5
C1
330
1F
100
AcDbEntity
  8
0
  6
Continuous
 62
     7
370
    25
100
AcDbLine
 10
-73.5
 20
36.0
 30
0.0
 11
-76.5
 21
36.0
 31
0.0
  0
LINE
  5
C2
330
1F
100
AcDbEntity
  8
0
  6
Continuous
 62
     7
370
    25
100
AcDbLine
 10
-73.5
 20
33.0
 30
0.0
 11
-73.5
 21
36.0
 31
0.0
  0
LINE
  5
C3
330
1F
100
AcDbEntity
  8
0
  6
Continuous
 62
     7
370
    25
100
AcDbLine
 10
-44.1
 20
33.0
 30
0.0
 11
-73.5
 21
33.0
 31
0.0
  0
LINE
  5
C4
330
1F
100
AcDbEntity
  8
0
  6
Continuous
 62
     7
370
    25
100
AcDbLine
 10
-44.1
 20
36.0
 30
0.0
 11
-44.1
 21
33.0
 31
0.0
  0
LINE
  5
C5
330
1F
100
AcDbEntity
  8
0
  6
Continuous
 62
     7
370
    25
100
AcDbLine
 10
-14.7
 20
36.0
 30
0.0
 11
-44.1
 21
36.0
 31
0.0
  0
LINE
  5
C6
330
1F
100
AcDbEntity
  8
0
  6
Continuous
 62
     7
370
    25
100
AcDbLine
 10
-14.7
 20
33.0
 30
0.0
 11
-14.7
 21
36.0
 31
0.0
  0
LINE
  5
C7
330
1F
100
AcDbEntity
  8
0
  6
Continuous
 62
     7
370
    25
100
AcDbLine
 10
14.7
 20
33.0
 30
0.0
 11
-14.7
 21
33.0
 31
0.0
  0
LINE
  5
C8
330
1F
100
AcDbEntity
  8
0
  6
Continuous
 62
     7
370
    25
100
AcDbLine
 10
14.7
 20
36.0
 30
0.0
 11
14.7
 21
33.0
 31
0.0
  0
LINE
  5
C9
330
1F
100
AcDbEntity
  8
0
  6
Continuous
 62
     7
370
    25
100
AcDbLine
 10
44.1
 20
36.0
 30
0.0
 11
14.7
 21
36.0
 31
0.0
  0
LINE
  5
CA
330
1F
100
AcDbEntity
  8
0
  6
Continuous
 62
     7
370
    25
100
AcDbLine
 10
44.1
 20
33.0
 30
0.0
 11
44.1
 21
36.0
 31
0.0
  0
LINE
  5
CB
330
1F
100
AcDbEntity
  8
0
  6
Continuous
 62
     7
370
    25
100
AcDbLine
 10
73.5
 20
33.0
 30
0.0
 11
44.1
 21
33.0
 31
0.0
  0
LINE
  5
CC
330
1F
100
AcDbEntity
  8
0
  6
Continuous
 62
     7
370
    25
100
AcDbLine
 10
-2.411738096
 20
-2.0980168765
 30
0.0
 11
-2.0792002542
 21
-1.6143254702
 31
0.0
  0
LINE
  5
CD
330
1F
100
AcDbEntity
  8
0
  6
Continuous
 62
     7
370
    25
100
AcDbLine
 10
0.5710255759
 20
3.6256647642
 30
0.0
 11
0.5710255759
 21
-0.6204907839
 31
0.0
  0
LINE
  5
CE
330
1F
100
AcDbEntity
  8
0
  6
Continuous
 62
     7
370
    25
100
AcDbLine
 10
0.0067189353
 20
3.6256647642
 30
0.0
 11
0.5710255759
 21
3.6256647642
 31
0.0
  0
LINE
  5
CF
330
1F
100
AcDbEntity
  8
0
  6
Continuous
 62
     7
370
    25
100
AcDbLine
 10
0.0067189353
 20
-0.5575101321
 30
0.0
 11
0.0067189353
 21
3.6256647642
 31
0.0
  0
ENDSEC
  0
SECTION
  2
OBJECTS
  0
DICTIONARY
  5
C
330
0
100
AcDbDictionary
281
     1
  3
ACAD_GROUP
350
D
  3
ACAD_LAYOUT
350
1A
  3
ACAD_MLINESTYLE
350
17
  3
ACAD_PLOTSETTINGS
350
19
  3
ACAD_PLOTSTYLENAME
350
E
  3
ACAD_SCALELIST
350
47
  0
DICTIONARY
  5
D
102
{ACAD_REACTORS
330
C
102
}
330
C
100
AcDbDictionary
281
     1
  0
DICTIONARY
  5
1A
102
{ACAD_REACTORS
330
C
102
}
330
C
100
AcDbDictionary
281
     1
  3
Layout1
350
1E
  3
Layout2
350
26
  3
Model
350
22
  0
DICTIONARY
  5
17
102
{ACAD_REACTORS
330
C
102
}
330
C
100
AcDbDictionary
281
     1
  3
Standard
350
18
  0
DICTIONARY
  5
19
102
{ACAD_REACTORS
330
C
102
}
330
C
100
AcDbDictionary
281
     1
  0
ACDBDICTIONARYWDFLT
  5
E
102
{ACAD_REACTORS
330
C
102
}
330
C
100
AcDbDictionary
281
     1
  3
Normal
350
F
100
AcDbDictionaryWithDefault
340
F
  0
DICTIONARY
  5
47
102
{ACAD_REACTORS
330
C
102
}
330
C
100
AcDbDictionary
281
     1
  3
A0
350
48
  3
A1
350
49
  3
A2
350
4A
  3
A3
350
4B
  3
A4
350
4C
  3
A5
350
4D
  3
A6
350
4E
  3
A7
350
4F
  3
A8
350
50
  3
A9
350
51
  3
B0
350
52
  3
B1
350
53
  3
B2
350
54
  3
B3
350
55
  3
B4
350
56
  3
B5
350
57
  3
B6
350
58
  3
B7
350
59
  3
B8
350
5A
  3
B9
350
5B
  3
C0
350
5C
  3
C1
350
5D
  3
C2
350
5E
  3
C3
350
5F
  3
C4
350
60
  3
C5
350
61
  3
C6
350
62
  3
C7
350
63
  3
C8
350
64
  3
C9
350
65
  3
D0
350
66
  3
D1
350
67
  3
D2
350
68
  0
LAYOUT
  5
1E
102
{ACAD_REACTORS
330
1A
102
}
330
1A
100
AcDbPlotSettings
  1

  2
none_device
  4

  6

 40
0.0
 41
0.0
 42
0.0
 43
0.0
 44
0.0
 45
0.0
 46
0.0
 47
0.0
 48
0.0
 49
0.0
140
0.0
141
0.0
142
1.0
143
1.0
 70
   688
 72
     1
 73
     0
 74
     5
  7

 75
    16
147
1.0
148
0.0
149
0.0
100
AcDbLayout
  1
Layout1
 70
     1
 71
     1
 10
0.0
 20
0.0
 11
420.0
 21
297.0
 12
0.0
 22
0.0
 32
0.0
 14
1.0000000000E+20
 24
1.0000000000E+20
 34
1.0000000000E+20
 15
-1.0000000000E+20
 25
-1.0000000000E+20
 35
-1.0000000000E+20
146
0.0
 13
0.0
 23
0.0
 33
0.0
 16
1.0
 26
0.0
 36
0.0
 17
0.0
 27
1.0
 37
0.0
 76
     0
330
1B
  0
LAYOUT
  5
26
102
{ACAD_REACTORS
330
1A
102
}
330
1A
100
AcDbPlotSettings
  1

  2
none_device
  4

  6

 40
0.0
 41
0.0
 42
0.0
 43
0.0
 44
0.0
 45
0.0
 46
0.0
 47
0.0
 48
0.0
 49
0.0
140
0.0
141
0.0
142
1.0
143
1.0
 70
   688
 72
     1
 73
     0
 74
     5
  7

 75
    16
147
1.0
148
0.0
149
0.0
100
AcDbLayout
  1
Layout2
 70
     1
 71
     2
 10
0.0
 20
0.0
 11
0.0
 21
0.0
 12
0.0
 22
0.0
 32
0.0
 14
0.0
 24
0.0
 34
0.0
 15
0.0
 25
0.0
 35
0.0
146
0.0
 13
0.0
 23
0.0
 33
0.0
 16
1.0
 26
0.0
 36
0.0
 17
0.0
 27
1.0
 37
0.0
 76
     0
330
23
  0
LAYOUT
  5
22
102
{ACAD_REACTORS
330
1A
102
}
330
1A
100
AcDbPlotSettings
  1

  2
none_device
  4
ANSI_A_(11.00_x_8.50_Inches)
  6

 40
6.35
 41
19.05
 42
6.35000508
 43
19.05000254
 44
279.4
 45
215.9
 46
133.34999746
 47
94.3236457888
 48
0.0
 49
0.0
140
0.0
141
0.0
142
0.0711764706
143
1.0
 70
  1696
 72
     0
 73
     0
 74
     0
  7

 75
     0
147
0.0179189148
148
-1300.4909072572
149
0.0
100
AcDbLayout
  1
Model
 70
     1
 71
     0
 10
0.0
 20
0.0
 11
420.0
 21
297.0
 12
0.0
 22
0.0
 32
0.0
 14
-76.5
 24
-42.0
 34
0.0
 15
76.5
 25
36.0
 35
0.0
146
0.0
 13
0.0
 23
0.0
 33
0.0
 16
1.0
 26
0.0
 36
0.0
 17
0.0
 27
1.0
 37
0.0
 76
     0
330
1F
331
29
  0
MLINESTYLE
  5
18
102
{ACAD_REACTORS
330
17
102
}
330
17
100
AcDbMlineStyle
  2
Standard
 70
     0
  3

 62
   256
 51
90.0
 52
90.0
 71
     2
 49
0.5
 62
   256
  6
BYLAYER
 49
-0.5
 62
   256
  6
BYLAYER
  0
ACDBPLACEHOLDER
  5
F
102
{ACAD_REACTORS
330
E
102
}
330
E
  0
SCALE
  5
48
102
{ACAD_REACTORS
330
47
102
}
330
47
100
AcDbScale
 70
     0
300
1:1
140
1.0
141
1.0
290
     1
  0
SCALE
  5
49
102
{ACAD_REACTORS
330
47
102
}
330
47
100
AcDbScale
 70
     0
300
1:2
140
1.0
141
2.0
290
     0
  0
SCALE
  5
4A
102
{ACAD_REACTORS
330
47
102
}
330
47
100
AcDbScale
 70
     0
300
1:4
140
1.0
141
4.0
290
     0
  0
SCALE
  5
4B
102
{ACAD_REACTORS
330
47
102
}
330
47
100
AcDbScale
 70
     0
300
1:5
140
1.0
141
5.0
290
     0
  0
SCALE
  5
4C
102
{ACAD_REACTORS
330
47
102
}
330
47
100
AcDbScale
 70
     0
300
1:8
140
1.0
141
8.0
290
     0
  0
SCALE
  5
4D
102
{ACAD_REACTORS
330
47
102
}
330
47
100
AcDbScale
 70
     0
300
1:10
140
1.0
141
10.0
290
     0
  0
SCALE
  5
4E
102
{ACAD_REACTORS
330
47
102
}
330
47
100
AcDbScale
 70
     0
300
1:16
140
1.0
141
16.0
290
     0
  0
SCALE
  5
4F
102
{ACAD_REACTORS
330
47
102
}
330
47
100
AcDbScale
 70
     0
300
1:20
140
1.0
141
20.0
290
     0
  0
SCALE
  5
50
102
{ACAD_REACTORS
330
47
102
}
330
47
100
AcDbScale
 70
     0
300
1:30
140
1.0
141
30.0
290
     0
  0
SCALE
  5
51
102
{ACAD_REACTORS
330
47
102
}
330
47
100
AcDbScale
 70
     0
300
1:40
140
1.0
141
40.0
290
     0
  0
SCALE
  5
52
102
{ACAD_REACTORS
330
47
102
}
330
47
100
AcDbScale
 70
     0
300
1:50
140
1.0
141
50.0
290
     0
  0
SCALE
  5
53
102
{ACAD_REACTORS
330
47
102
}
330
47
100
AcDbScale
 70
     0
300
1:100
140
1.0
141
100.0
290
     0
  0
SCALE
  5
54
102
{ACAD_REACTORS
330
47
102
}
330
47
100
AcDbScale
 70
     0
300
2:1
140
2.0
141
1.0
290
     0
  0
SCALE
  5
55
102
{ACAD_REACTORS
330
47
102
}
330
47
100
AcDbScale
 70
     0
300
4:1
140
4.0
141
1.0
290
     0
  0
SCALE
  5
56
102
{ACAD_REACTORS
330
47
102
}
330
47
100
AcDbScale
 70
     0
300
8:1
140
8.0
141
1.0
290
     0
  0
SCALE
  5
57
102
{ACAD_REACTORS
330
47
102
}
330
47
100
AcDbScale
 70
     0
300
10:1
140
10.0
141
1.0
290
     0
  0
SCALE
  5
58
102
{ACAD_REACTORS
330
47
102
}
330
47
100
AcDbScale
 70
     0
300
100:1
140
100.0
141
1.0
290
     0
  0
SCALE
  5
59
102
{ACAD_REACTORS
330
47
102
}
330
47
100
AcDbScale
 70
     0
300
1/128" = 1'-0"
140
0.0078125
141
12.0
290
     0
  0
SCALE
  5
5A
102
{ACAD_REACTORS
330
47
102
}
330
47
100
AcDbScale
 70
     0
300
1/64" = 1'-0"
140
0.015625
141
12.0
290
     0
  0
SCALE
  5
5B
102
{ACAD_REACTORS
330
47
102
}
330
47
100
AcDbScale
 70
     0
300
1/32" = 1'-0"
140
0.03125
141
12.0
290
     0
  0
SCALE
  5
5C
102
{ACAD_REACTORS
330
47
102
}
330
47
100
AcDbScale
 70
     0
300
1/16" = 1'-0"
140
0.0625
141
12.0
290
     0
  0
SCALE
  5
5D
102
{ACAD_REACTORS
330
47
102
}
330
47
100
AcDbScale
 70
     0
300
3/32" = 1'-0"
140
0.09375
141
12.0
290
     0
  0
SCALE
  5
5E
102
{ACAD_REACTORS
330
47
102
}
330
47
100
AcDbScale
 70
     0
300
1/8" = 1'-0"
140
0.125
141
12.0
290
     0
  0
SCALE
  5
5F
102
{ACAD_REACTORS
330
47
102
}
330
47
100
AcDbScale
 70
     0
300
3/16" = 1'-0"
140
0.1875
141
12.0
290
     0
  0
SCALE
  5
60
102
{ACAD_REACTORS
330
47
102
}
330
47
100
AcDbScale
 70
     0
300
1/4" = 1'-0"
140
0.25
141
12.0
290
     0
  0
SCALE
  5
61
102
{ACAD_REACTORS
330
47
102
}
330
47
100
AcDbScale
 70
     0
300
3/8" = 1'-0"
140
0.375
141
12.0
290
     0
  0
SCALE
  5
62
102
{ACAD_REACTORS
330
47
102
}
330
47
100
AcDbScale
 70
     0
300
1/2" = 1'-0"
140
0.5
141
12.0
290
     0
  0
SCALE
  5
63
102
{ACAD_REACTORS
330
47
102
}
330
47
100
AcDbScale
 70
     0
300
3/4" = 1'-0"
140
0.75
141
12.0
290
     0
  0
SCALE
  5
64
102
{ACAD_REACTORS
330
47
102
}
330
47
100
AcDbScale
 70
     0
300
1" = 1'-0"
140
1.0
141
12.0
290
     0
  0
SCALE
  5
65
102
{ACAD_REACTORS
330
47
102
}
330
47
100
AcDbScale
 70
     0
300
1-1/2" = 1'-0"
140
1.5
141
12.0
290
     0
  0
SCALE
  5
66
102
{ACAD_REACTORS
330
47
102
}
330
47
100
AcDbScale
 70
     0
300
3" = 1'-0"
140
3.0
141
12.0
290
     0
  0
SCALE
  5
67
102
{ACAD_REACTORS
330
47
102
}
330
47
100
AcDbScale
 70
     0
300
6" = 1'-0"
140
6.0
141
12.0
290
     0
  0
SCALE
  5
68
102
{ACAD_REACTORS
330
47
102
}
330
47
100
AcDbScale
 70
     0
300
1'-0" = 1'-0"
140
12.0
141
12.0
290
     0
  0
ENDSEC
  0
EOF
